<svg width="112" height="42" viewBox="0 0 112 42" fill="none" xmlns="http://www.w3.org/2000/svg">
<rect width="112" height="42" fill="#0074E9"/>
<path fill-rule="evenodd" clip-rule="evenodd" d="M92.2895 21L88 16.9428L88.7137 16L94 21L88.7137 26L88 25.0572L92.2895 21Z" fill="#F3F3F3"/>
<path d="M32.11 20.694H30.248C30.598 18.888 30.598 17.558 30.598 16.382V15.29H22.17V16.214H29.478V16.382C29.478 17.558 29.478 18.888 29.086 20.694H20.756V21.632H25.824V27.05H26.986V21.632H32.11V20.694ZM35.1469 16.844H37.7789V22.752H35.1469V16.844ZM34.0689 23.662H38.8429V15.934H34.0689V23.662ZM43.1969 14.478V19.448H41.5029V14.758H40.4249V26.406H41.5029V20.386H43.1969V27.022H44.2889V14.478H43.1969ZM50.1818 23.284C49.0478 23.284 48.2218 22.472 48.2218 21.352C48.2218 20.218 49.0478 19.406 50.1818 19.406C51.3298 19.406 52.1558 20.218 52.1558 21.352C52.1558 22.472 51.3298 23.284 50.1818 23.284ZM50.1818 18.454C48.4178 18.454 47.1438 19.658 47.1438 21.352C47.1438 23.06 48.4178 24.236 50.1818 24.236C51.9738 24.236 53.2478 23.06 53.2478 21.352C53.2478 19.658 51.9738 18.454 50.1818 18.454ZM50.7418 14.632H49.5938V16.494H46.4298V17.418H53.8358V16.494H50.7418V14.632ZM58.2318 19.644H56.1738V14.492H55.0258V27.036H56.1738V20.61H58.2318V19.644ZM60.1207 15.836V16.76H64.8387C64.6007 19.742 62.9207 22.15 59.5467 23.76L60.1627 24.698C64.3347 22.654 66.0007 19.462 66.0007 15.836H60.1207ZM68.5347 14.478V27.036H69.6827V14.478H68.5347Z" fill="white"/>
</svg>
