<svg width="114" height="50" viewBox="0 0 114 50" fill="none" xmlns="http://www.w3.org/2000/svg">
<path d="M33.5833 6.25H4.41667C2.10417 6.25 0.25 8.125 0.25 10.4167V39.5833C0.25 41.875 2.10417 43.75 4.41667 43.75H33.5833C35.8958 43.75 37.75 41.875 37.75 39.5833V10.4167C37.75 8.125 35.8958 6.25 33.5833 6.25ZM14.8333 35.4167L4.41667 25L7.35417 22.0625L14.8333 29.5208L30.6458 13.7083L33.5833 16.6667L14.8333 35.4167Z" fill="#FEFEFE"/>
<g clip-path="url(#clip0_6318_4406)">
<path d="M103.583 10.4167V39.5833H74.4167V10.4167H103.583ZM103.583 6.25H74.4167C72.125 6.25 70.25 8.125 70.25 10.4167V39.5833C70.25 41.875 72.125 43.75 74.4167 43.75H103.583C105.875 43.75 107.75 41.875 107.75 39.5833V10.4167C107.75 8.125 105.875 6.25 103.583 6.25Z" fill="#FEFEFE"/>
</g>
<defs>
<clipPath id="clip0_6318_4406">
<rect width="50" height="50" fill="white" transform="translate(64)"/>
</clipPath>
</defs>
</svg>
