<svg width="120" height="50" viewBox="0 0 120 50" fill="none" xmlns="http://www.w3.org/2000/svg">
<g clip-path="url(#clip0_6318_4498)">
<path d="M24.9997 9.375C14.583 9.375 5.68717 15.8542 2.08301 25C5.68717 34.1458 14.583 40.625 24.9997 40.625C35.4163 40.625 44.3122 34.1458 47.9163 25C44.3122 15.8542 35.4163 9.375 24.9997 9.375ZM24.9997 35.4167C19.2497 35.4167 14.583 30.75 14.583 25C14.583 19.25 19.2497 14.5833 24.9997 14.5833C30.7497 14.5833 35.4163 19.25 35.4163 25C35.4163 30.75 30.7497 35.4167 24.9997 35.4167ZM24.9997 18.75C21.5413 18.75 18.7497 21.5417 18.7497 25C18.7497 28.4583 21.5413 31.25 24.9997 31.25C28.458 31.25 31.2497 28.4583 31.2497 25C31.2497 21.5417 28.458 18.75 24.9997 18.75Z" fill="#FEFEFE"/>
</g>
<g clip-path="url(#clip1_6318_4498)">
<path d="M94.9997 14.5833C100.75 14.5833 105.416 19.25 105.416 25C105.416 26.3438 105.146 27.625 104.677 28.8021L110.771 34.8958C113.916 32.2708 116.396 28.875 117.927 25C114.312 15.8542 105.427 9.375 94.9997 9.375C92.083 9.375 89.2913 9.89583 86.6976 10.8333L91.1976 15.3229C92.3747 14.8646 93.6559 14.5833 94.9997 14.5833V14.5833ZM74.1663 8.90625L78.9163 13.6563L79.8643 14.6042C76.4268 17.2917 73.708 20.8646 72.083 25C75.6872 34.1458 84.583 40.625 94.9997 40.625C98.2288 40.625 101.312 40 104.135 38.8646L105.021 39.75L111.093 45.8333L113.75 43.1875L76.8226 6.25L74.1663 8.90625ZM85.6872 20.4167L88.9059 23.6354C88.8122 24.0833 88.7497 24.5313 88.7497 25C88.7497 28.4479 91.5518 31.25 94.9997 31.25C95.4684 31.25 95.9163 31.1875 96.3538 31.0938L99.5726 34.3125C98.1872 35 96.6455 35.4167 94.9997 35.4167C89.2497 35.4167 84.583 30.75 84.583 25C84.583 23.3542 84.9997 21.8125 85.6872 20.4167ZM94.6559 18.7813L101.218 25.3438L101.25 25C101.25 21.5521 98.4476 18.75 94.9997 18.75L94.6559 18.7813Z" fill="#FEFEFE"/>
</g>
<defs>
<clipPath id="clip0_6318_4498">
<rect width="50" height="50" fill="white"/>
</clipPath>
<clipPath id="clip1_6318_4498">
<rect width="50" height="50" fill="white" transform="translate(70)"/>
</clipPath>
</defs>
</svg>
