<svg width="140" height="14" viewBox="0 0 140 14" fill="none" xmlns="http://www.w3.org/2000/svg">
<path d="M129.368 13.6295V0.344727H139.746V3.52701H133.54V5.29181H138.794V8.34804H133.54V10.4035H140V13.6295H129.368V13.6295Z" fill="#24388D"/>
<path d="M116.79 13.6295V0.344727H127.168V3.52701H120.958V5.29181H126.206V8.34804H120.958V10.4035H127.42V13.6295H116.79V13.6295Z" fill="#24388D"/>
<path d="M105.388 13.6295V0.344727H115.206V3.68908H109.553V5.74715H114.053V8.95774H109.553V13.6321H105.388V13.6295Z" fill="#24388D"/>
<path d="M93.9768 13.6295V0.344727H103.797V3.68908H98.1493V5.74715H102.641V8.95774H98.1493V13.6321H93.9768V13.6295Z" fill="#24388D"/>
<path d="M78.5889 6.99743C78.5889 4.83646 79.1871 3.12312 80.3961 1.87541C81.6102 0.622565 83.254 0 85.3403 0C87.4215 0 89.0628 0.622565 90.2694 1.87541C91.4784 3.12312 92.0741 4.83646 92.0741 6.99743C92.0741 9.1584 91.4784 10.8666 90.2694 12.1194C89.0628 13.3723 87.4215 13.9974 85.3403 13.9974C83.254 13.9974 81.6102 13.3723 80.3961 12.1194C79.1871 10.8692 78.5889 9.1584 78.5889 6.99743ZM82.7966 6.99743C82.7966 8.25285 83.0002 9.17898 83.4099 9.7681C83.8221 10.3572 84.4656 10.6505 85.3378 10.6505C86.21 10.6505 86.8509 10.3572 87.2556 9.77067C87.6578 9.1867 87.8614 8.26057 87.8614 6.99743C87.8614 5.73172 87.6603 4.80301 87.2556 4.21389C86.8509 3.63506 86.21 3.33921 85.3378 3.33921C84.4656 3.33921 83.8196 3.63506 83.4099 4.22418C83.0002 4.8133 82.7966 5.73686 82.7966 6.99743Z" fill="#24388D"/>
<path d="M73.4437 8.48168H77.39C77.2769 10.231 76.6736 11.5945 75.5827 12.5566C74.4918 13.5188 73.0264 13.9999 71.1664 13.9999C69.0852 13.9999 67.4539 13.3824 66.2599 12.1347C65.0635 10.8845 64.4678 9.1737 64.4678 6.99987C64.4678 4.8389 65.0635 3.12556 66.2423 1.87785C67.4187 0.625007 69.0324 0.00244141 71.0684 0.00244141C72.9485 0.00244141 74.4265 0.465506 75.5073 1.39164C76.5856 2.32291 77.1914 3.65294 77.3196 5.38171H73.323C73.2652 4.69998 73.049 4.18546 72.6745 3.83559C72.3101 3.49344 71.7822 3.32365 71.1161 3.32365C70.3042 3.32365 69.6884 3.62978 69.2787 4.23691C68.869 4.84662 68.6704 5.77017 68.6704 7.00244C68.6704 8.21413 68.8916 9.12997 69.3214 9.74739C69.7588 10.3674 70.3972 10.6787 71.2343 10.6787C71.8853 10.6787 72.393 10.4909 72.7751 10.105C73.1546 9.72681 73.3808 9.18657 73.4437 8.48168Z" fill="#24388D"/>
<path d="M44.5376 13.6295L49.1047 0.344727H53.325L57.8896 13.6295H53.7548L53.2722 11.8699H49.1399L48.6347 13.6295H44.5376V13.6295ZM49.8965 9.08122H52.5156L51.2186 4.48401L49.8965 9.08122Z" fill="#24388D"/>
<path d="M37.7007 13.6295V8.71077L32.9199 0.344727H37.5423L39.7794 4.8699L42.0366 0.344727H46.5308L41.8657 8.71077V13.6295H37.7007V13.6295Z" fill="#24388D"/>
<path d="M26.802 13.6295V0.344727H31.0524V13.6295H26.802V13.6295Z" fill="#24388D"/>
<path d="M12.5779 13.6295V0.344727H17.6201C18.897 0.344727 19.8521 0.401323 20.4755 0.51709C21.1039 0.632856 21.6493 0.833517 22.1118 1.09849C23.0117 1.64131 23.6878 2.40279 24.1377 3.38038C24.5902 4.35796 24.8164 5.5645 24.8164 6.99486C24.8164 8.49982 24.5399 9.76553 23.9743 10.792C23.4188 11.8159 22.5843 12.5774 21.496 13.0764C21.0737 13.2771 20.5433 13.4135 19.9049 13.4983C19.2665 13.5858 18.2459 13.627 16.8434 13.627H12.5779V13.6295ZM16.7454 10.2646H17.8739C18.9095 10.2646 19.6259 10.0279 20.0356 9.54943C20.4378 9.07608 20.6363 8.22455 20.6363 6.99486C20.6363 5.79603 20.4302 4.94965 20.0205 4.45057C19.6108 3.95149 18.912 3.70709 17.9267 3.70709H16.7479V10.2646H16.7454Z" fill="#24388D"/>
<path d="M0 13.6295V0.344727H10.3734V3.52701H4.1725V5.29181H9.41326V8.34804H4.1725V10.4035H10.6298V13.6295H0V13.6295Z" fill="#24388D"/>
</svg>
